<?xml version="1.0" encoding="utf-8"?>
<!-- Generator: Adobe Illustrator 19.2.0, SVG Export Plug-In . SVG Version: 6.00 Build 0)  -->
<svg version="1.1" xmlns="http://www.w3.org/2000/svg" xmlns:xlink="http://www.w3.org/1999/xlink" x="0px" y="0px"
	 viewBox="0 0 260.3 271" style="enable-background:new 0 0 260.3 271;" xml:space="preserve">
<style type="text/css">
	.st0{display:none;}
	.st1{display:inline;opacity:0.53;}
	.st2{fill:#FFFFFF;}
	.st3{fill:#010101;}
	.st4{fill:none;}
	.st5{font-family:'Charter-Roman';}
	.st6{font-size:36px;}
	.st7{letter-spacing:1;}
	.st8{display:inline;fill:none;stroke:#000000;stroke-miterlimit:10;}
</style>
<g id="Layer_1" class="st0">
	<g id="fYXYYi.tif" class="st1">
		
			<image style="overflow:visible;" width="999" height="920" id="Layer_1_2_" xlink:href="86EE4736CD1FC36E.png"  transform="matrix(0.3374 0 0 0.3374 -44.0888 27.5517)">
		</image>
	</g>
</g>
<g id="Layer_2">
	<path d="M238.8,143c-0.7-0.2-1.4-0.4-2.2-0.5c2-13.9,2.4-24.7,2.4-29.5H6.8c0,18.2,5.7,123.4,84.5,149.3c20.5,6.7,42.8,6.7,63.3,0
		c30.2-9.9,49.7-31.5,62.2-55.4c1,0.6,2.2,1,3.3,1.3c12.6,3.6,27-8.1,32.1-26.1C257.4,164.2,251.3,146.7,238.8,143z M36.4,202.8
		c-8.5-13.5-18.3-43.2-20.9-59.1c-0.5-2.9,1.8-5.4,4.2-4.6c5.9,1.8,13.6,2,17.9,2c1.9,0,3.4,1.7,3.4,3.8c-2.3,17.9-1.9,36,1.2,53.7
		l0.3,1.7C42.7,204.2,38.4,206,36.4,202.8z M245.3,180.2c-3.6,12.6-13.7,20.8-22.5,18.3c-0.6-0.2-1.2-0.4-1.7-0.7
		c6.9-15.4,11.2-31.3,13.8-45.3c0.4,0.1,0.7,0.1,1,0.2C244.8,155.4,249,167.6,245.3,180.2z"/>
	<g>
		<path class="st2" d="M187.8,102.1c-0.2,0.6-0.3,1.1-0.4,1.7c-0.2,1-1.4,1.6-2.4,1.3c-0.5-0.1-0.8-0.4-1-0.7
			c-0.1,0.2-0.2,0.3-0.3,0.4c-0.8,0.8-1.9,0.6-2.7,0c-0.9-0.7-0.9-2-0.4-2.9c0.1-0.1,0.1-0.2,0.2-0.3c-10.5-0.7-22.1-1.2-34.3-1.5
			c-0.2,0.4-0.3,0.8-0.5,1.1c0,0-0.1,0.2-0.1,0.3c2,1.2,0.1,4.4-2,3.3c-2-1.1-2.1-2.9-1.5-4.8c-6.3-0.1-12.8-0.2-19.4-0.2
			c-6.7,0-13.3,0.1-19.7,0.2c0.2,0.4,0.2,0.8,0.1,1.2c-0.1,0.2-0.1,0.3-0.2,0.5c0.4,0.2,0.8,0.4,0.9,0.4c2.3,1,0.3,4.3-1.9,3.3
			c-0.9-0.4-1.9-0.8-2.7-1.5c-1.1,0-2.2-0.2-3.2-0.7c-1.7,1.2-4.5,0.7-6.5-0.1c-1.2,0.1-2.5,0-3.8-0.4c-0.2,0-0.3-0.1-0.4-0.2
			c-0.3,0.2-0.6,0.4-0.9,0.5c-0.1,0.2-0.1,0.4-0.2,0.7c-0.5,2.2-3.7,1.6-3.8-0.5c0-0.8,0-1.6,0.1-2.4c-43.2,1.9-73.8,6.7-73.8,12.3
			c0,7.3,52,13.2,116.1,13.2S239,120.4,239,113.1C239,108.5,218.7,104.5,187.8,102.1z"/>
		<path class="st3" d="M180.6,101.9c0.2-0.3,0.4-0.5,0.6-0.8c-10.8-0.7-22.5-1.2-34.5-1.5c-0.1,0.3-0.3,0.6-0.4,1
			c12.5,0.3,23.9,0.8,34.2,1.5C180.5,102,180.6,102,180.6,101.9z"/>
		<path class="st3" d="M103.4,100.5c6.3-0.1,12.8-0.2,19.5-0.2c6.6,0,13.1,0.1,19.3,0.2c0.1-0.3,0.2-0.7,0.3-1
			c-6.5-0.1-13.1-0.2-19.6-0.2c-6.7,0-13.4,0.1-20,0.2C103.2,99.8,103.3,100.2,103.4,100.5z"/>
		<path class="st3" d="M187.9,101.6c-0.1,0.3-0.2,0.6-0.2,0.9c31.8,2.4,50.9,6.6,50.9,10.5c0,6.1-46.5,12.7-115.6,12.7
			c-69.2,0-115.6-6.6-115.6-12.7c0-4.8,28.2-9.8,73.3-11.8c0-0.3,0.1-0.6,0.1-1c-41,1.8-74.4,6.3-74.4,12.8
			c0,8.6,59.3,13.7,116.6,13.7c57.3,0,116.6-5.1,116.6-13.7C239.5,107.9,217.8,103.9,187.9,101.6z"/>
	</g>
	<g>
		<path class="st2" d="M219.2,105c-0.3,0.6-0.6,1.1-1,1.6c-0.1,0.1-0.1,0.2-0.2,0.4c-0.2,0.3-0.4,0.5-0.7,0.7
			c-0.2,0.1-0.4,0.2-0.6,0.3c-0.3,0.1-0.5,0.2-0.8,0.2c-0.2,0.2-0.4,0.3-0.6,0.4c-0.7,1.5-1.2,3.1-2.2,4.4c-0.4,0.5-1,0.8-1.6,0.9
			c-0.5,2.1-3.8,1.5-3.8-0.6c0-1.2-0.1-2.8-0.1-4.5c0,0,0,0,0-0.1c-0.7,0.5-1.7,0.5-2.3-0.1c-0.3,0-0.6-0.1-0.9-0.3
			c-1.1,0.2-2.5-0.6-2.4-1.9c0.1-1.2,0.3-2.3,0.5-3.4c-4.3-0.4-8.9-0.8-13.8-1.1c-0.1,0.2-0.2,0.5-0.2,0.7c-0.1,0.3-0.3,0.6-0.5,0.8
			c0,0,0,0,0,0c-0.6,1.6-2.4,1.6-3.3,0.8c-0.1,0.2-0.1,0.5-0.2,0.7c-0.4,1.6-2.1,1.7-3.1,0.9c-0.1,0-0.2-0.1-0.3-0.1
			c-0.9-0.4-1.3-1.3-1.1-2.3c0.1-0.6,0.3-1.3,0.6-2c-9.1-0.5-19-0.9-29.5-1.2c0,0,0,0.1,0,0.1c0.8,0.1,1.5,0.5,1.7,1.4
			c0.2,0.9-0.3,2.2-1.3,2.4c-1.2,0.2-2.2-0.1-3.2-0.7c-0.6,0-1.1-0.1-1.7-0.3c-0.3,0-0.6,0.1-0.9,0.1c-0.2,0.2-0.4,0.3-0.5,0.4
			c-1.6,1.2-3.3-0.9-2.7-2.4c0-0.4,0.1-0.8,0.3-1.1c-6.5-0.1-13.1-0.2-19.9-0.2c-6.7,0-13.3,0.1-19.7,0.2c0.2,0.4,0.2,0.8,0.1,1.2
			c-0.1,0.2-0.1,0.3-0.2,0.5c0.4,0.2,0.8,0.4,0.9,0.4c2.3,1,0.3,4.3-1.9,3.3c-0.9-0.4-1.9-0.8-2.7-1.5c-1.1,0-2.2-0.2-3.2-0.7
			c-1.7,1.2-4.5,0.7-6.5-0.1c-1.2,0.1-2.5,0-3.8-0.4c-0.2,0-0.3-0.1-0.4-0.2c-0.3,0.2-0.6,0.4-0.9,0.5c-0.1,0.2-0.1,0.4-0.2,0.7
			c-0.5,2.2-3.7,1.6-3.8-0.5c0-0.9,0-1.7,0.1-2.5c-43.2,1.7-73.9,5.9-73.9,10.8c0,6.4,52,11.6,116.1,11.6S239,117.8,239,111.4
			C239,109,231.7,106.8,219.2,105z"/>
		<path class="st3" d="M188.5,102.4c4.9,0.3,9.6,0.7,13.9,1.1c0.1-0.3,0.1-0.6,0.2-0.9c-4.3-0.4-8.9-0.8-13.8-1.1
			C188.8,101.7,188.7,102.1,188.5,102.4z"/>
		<path class="st3" d="M103.4,100.5c6.3-0.1,12.8-0.2,19.5-0.2c6.8,0,13.3,0.1,19.7,0.2c0.1-0.3,0.2-0.6,0.5-0.8
			c0.1-0.1,0.1-0.1,0.2-0.2c-6.7-0.1-13.5-0.2-20.3-0.2c-6.7,0-13.4,0.1-20,0.2C103.1,99.8,103.3,100.1,103.4,100.5z"/>
		<path class="st3" d="M219.4,104.5c-0.1,0.3-0.3,0.6-0.4,0.9c12.5,1.8,19.5,4,19.5,6c0,5.4-46.5,11.1-115.6,11.1
			c-69.2,0-115.6-5.7-115.6-11.1c0-4.2,28.2-8.6,73.3-10.3c0-0.3,0.1-0.6,0.1-1c-41,1.6-74.4,5.6-74.4,11.3
			c0,7.6,59.3,12.1,116.6,12.1c57.3,0,116.6-4.5,116.6-12.1C239.5,108.7,231.8,106.4,219.4,104.5z"/>
		<path class="st3" d="M180.7,100.9c-9.4-0.5-19.5-0.9-29.9-1.2c0.1,0.2,0.2,0.4,0.3,0.6c0.4,0,0.8,0.2,1.1,0.4
			c10.1,0.3,19.5,0.6,28.2,1.1C180.4,101.5,180.5,101.2,180.7,100.9z"/>
	</g>
	<g>
		<path class="st3" d="M68,121.8c1.8-0.6,3.6-0.4,5.5,0c0.6,0.1,1.2,0.3,1.9,0.4c-7.9-2.8-13.9-7.9-16.3-14.7
			c-0.8,4.4-1.3,9.1-1.4,13.9c0,0,0,0,0,0c0,0,0.1,0,0.1,0c0.1,0,0.3,0,0.4,0.1c0.3-0.1,0.6-0.2,1-0.3c2.7-0.1,5.4,0.5,8.1,0.9
			C67.4,122,67.7,121.8,68,121.8z"/>
		<path class="st3" d="M113.4,122.9c2.4,0.2,4.9,0.4,7.3,0.5c0-0.4,0-0.7,0-1.1c0.1-4.8-0.3-9.5-1-14c-2.7,7.2-9.7,12.4-18.6,14.7
			c1.3,0,2.7,0.1,4,0.3c0.4-0.3,0.9-0.5,1.5-0.4c0.2,0,0.4,0.1,0.6,0.1c0.5,0,1.1,0,1.6,0.1c0.4-0.4,0.9-0.6,1.6-0.6
			c0.8,0,1.5,0.2,2.3,0.4C113,122.9,113.2,122.8,113.4,122.9z"/>
		<path class="st3" d="M87,120.7l0.1-8.9c-2.4-0.4-4.2-2.5-4.1-4.9l0.3-17.6c0-2.5,1.9-4.5,4.3-4.8l0.2-13.6
			C75.1,72,64.3,85.3,59.8,103.6C63.9,112.9,74.4,119.8,87,120.7z"/>
		<path class="st3" d="M96.1,89.4l-0.3,17.6c0,2.5-1.9,4.5-4.3,4.8l-0.1,8.9c12.6-0.5,23.3-7.1,27.6-16.2
			c-3.9-18.5-14.3-32-26.9-33.6L92,84.5C94.3,84.9,96.1,87,96.1,89.4z"/>
		<path class="st3" d="M85.6,92.6l-0.2,10.9c0,1.7,1.3,3.1,3,3.1l1.9,0c1.7,0,3.1-1.3,3.1-3l0.2-10.9c0-1.7-1.3-3.1-3-3.1l-1.9,0
			C87,89.6,85.6,90.9,85.6,92.6z"/>
	</g>
	<g>
		<path d="M176,49.4l-12-4.2l-0.7,3c-0.9,4.1-2.3,8.1-4.1,11.9l-1.3,2.8c0,0,3.8-1.8,7.1-0.8c2.1,0.6,3.7,3.7,4.9,4.9l0.5-1.4
			l0.3-1.3c0.9-4.3,2.3-8.5,4.2-12.4L176,49.4z"/>
		<rect x="169.4" y="37.7" transform="matrix(0.3276 -0.9448 0.9448 0.3276 73.4503 191.3529)" width="3.5" height="12.7"/>
		<path d="M172.3,40.7c3.4,1.2,8.3-4.3,11-12.2c2.7-7.9,0.4-20.8,0.4-20.8s-9.8,8.7-12.6,16.6C168.5,32.2,169,39.5,172.3,40.7z
			 M179.5,14.9c-6.5,9.8-5.2,20.5-7.8,19.5C168.8,31.2,176.5,16.3,179.5,14.9z"/>
		<path d="M164.3,64c-5.6-1.9-13.6,6.4-30.8,56.2c-0.3,0.9-0.6,1.7-0.9,2.6c0.6,0,1.1,0.1,1.7,0.2c0.3,0,0.5,0,0.8,0
			c7.8-21.3,17.4-44,20.3-48.1c-7.8,20.7-13.4,36.1-17.5,47.8c0.3-0.1,0.6-0.1,0.9-0.1c0.8,0,1.7,0.3,2.4,0.8c2-0.5,4.6-0.4,5.6-0.6
			c1.5-0.2,2.8-0.2,4,0c0.3-0.2,0.6-0.3,1-0.3c0.8,0,1.6,0,2.3,0.3c0,0,0,0,0,0c0.4-0.1,0.7-0.1,1.1-0.2
			C170.9,76.7,169.7,65.9,164.3,64z"/>
	</g>
	<g>
		<polygon class="st3" points="208.2,51.8 208,40.8 200.2,37.8 192.7,45.8 200.4,48.8 		"/>
		<polygon class="st3" points="208.1,39.1 208.2,33.7 208.4,28.4 204.8,32.4 201.3,36.4 204.7,37.7 		"/>
		<path class="st3" d="M177.9,121.7l26.9-69.1l-1.8-0.7l-27.1,69.8C176.5,121.7,177.2,121.7,177.9,121.7z"/>
		<path class="st3" d="M174.9,121.7l27.3-70.1l-10.6-4.1l-29,74.5C166.7,121.7,170.8,121.7,174.9,121.7z"/>
		<path class="st3" d="M181.3,121.9l26.5-68.1l-1.5-0.6l-26.6,68.5c0.3,0,0.7,0.1,1,0.1C180.9,121.9,181.1,121.9,181.3,121.9z"/>
	</g>
	<g>
		<path class="st3" d="M219.9,82.7c3.3,1.4,5.3,4.5,5.4,7.9c0.6-1,1.2-2.3,1.7-3.7c1.6-4.4,2-9.1,1.6-13.7L226,47.8l-14.3,33.1
			l-1.5,3.4C212.8,82,216.5,81.2,219.9,82.7z M226.9,78.9c-1.5-1.3-2.3-3.1-2.3-5c0-4.3,0.2-12.2,0.9-15.8L226.9,78.9z"/>
		<path class="st3" d="M210.8,88.5L210.8,88.5l1.3,0.6l0.1,0l0,0.1l1.3,0.6l0,0l1.3,0.6l0.1,0l0,0.1l1.3,0.6l0,0l1.3,0.6l0.1,0
			l0,0.1l1.3,0.6l0,0l1.3,0.6l0.1,0l0,0.1l1.3,0.6l0,0l1.4,0.6l0.9,0.4c0.3-0.7,0.5-1.4,0.6-2.1l-0.9,0.4l-0.4-1l1-0.4l0.3,0.8
			c0.2-1.8-0.2-3.5-1.1-5.1l0.1,0c-0.2-0.3-0.4-0.6-0.6-0.9l0,0c-0.4-0.5-0.8-1-1.4-1.5l0,0c-0.1-0.1-0.1-0.2-0.2-0.2l-0.9,0.4
			l-0.4-1l0.2-0.1c-0.3-0.1-0.5-0.3-0.8-0.4s-0.6-0.2-0.8-0.3l0.1,0.2l-1,0.4l-0.4-0.9c-0.1,0-0.2,0-0.3,0l0,0c-0.2,0-0.4,0-0.6,0
			c-0.1,0-0.2,0-0.4,0l0,0c-0.4,0-0.7,0-1.1,0l0,0c-0.3,0-0.7,0.1-1,0.2l0,0.1c-0.6,0.1-1.1,0.3-1.6,0.6c-0.1,0-0.3,0.1-0.4,0.1
			l0,0.1c-0.9,0.5-1.8,1.1-2.4,1.9l0.8-0.3l0.4,1l-1,0.4l-0.4-0.9c-0.5,0.6-0.9,1.2-1.2,1.9l0.9,0.4L210.8,88.5z M213.6,89.7l-0.4-1
			l1-0.4l0.4,1L213.6,89.7z M220.3,89.4l-0.4-1l1-0.4l0.4,1L220.3,89.4z M221.7,89.9l0.4,1l-1,0.4l-0.4-1L221.7,89.9z M219.3,89.7
			l-1,0.4l-0.4-1l1-0.4L219.3,89.7z M219.5,87.4l-0.4-1l1-0.4l0.4,0.9L219.5,87.4z M218.5,87.8l-1,0.4l-0.4-1l1-0.4L218.5,87.8z
			 M216.6,88.5l-1,0.4l-0.4-1l1-0.4L216.6,88.5z M216.7,86.2l-0.4-1l1-0.4l0.4,1L216.7,86.2z M215.8,86.6l-1,0.4l-0.4-1l1-0.4
			L215.8,86.6z M213.8,87.3l-1,0.4l-0.4-1l1-0.4L213.8,87.3z M216.3,90.9l-0.4-1l1-0.4l0.4,1L216.3,90.9z M219.1,92.1l-0.4-1l1-0.4
			l0.4,1L219.1,92.1z M222.8,92.9l-1,0.4l-0.4-1l1-0.4L222.8,92.9z M223,90.5l-0.4-1l1-0.4l0.4,1.1L223,90.5z M223.3,88.2l-1,0.4
			l-0.4-1l1-0.4L223.3,88.2z M222.1,85.3l0.4,0.9l-1,0.4l-0.4-0.9L222.1,85.3z M219.3,84l0.4,1l-1,0.4l-0.4-1L219.3,84z M216.5,82.8
			l0.4,1l-1,0.4l-0.4-1L216.5,82.8z M215,84.6l-1,0.4l-0.4-1l1-0.4L215,84.6z M211.6,84.8l1-0.4l0.4,1l-1,0.4L211.6,84.8z
			 M211.5,87.1l0.4,1l-1,0.4l-0.4-1L211.5,87.1z"/>
		<path class="st3" d="M204,97.9l15.6,6.7l1.5-3.4l-15.6-6.7L204,97.9z M212.5,99l7.4,3.2l-0.4,1l-7.4-3.2L212.5,99z"/>
		<path class="st3" d="M209.8,111.6c0.1-0.2,0.4-0.3,0.6-0.2l0,0c0.2,0.1,0.3,0.4,0.2,0.6l-3.3,7.6c0.3,0,0.6,0,0.9,0
			c0.3,0,0.6-0.1,0.9-0.1c0,0,0,0,0,0l5-11.6c0.1-0.2,0.4-0.4,0.6-0.3c0.2,0.1,0.4,0.4,0.3,0.6l-4.7,10.8c0.7-0.3,1.4-0.2,2.1,0
			c0.3-0.1,0.6-0.1,0.9-0.2l5.8-13.4l-15.6-6.7l-9.5,22c0.7,0,1.3,0,2-0.1c3.3-1,6.7-0.9,10.1-1L209.8,111.6z"/>
		
			<rect x="207.1" y="91.1" transform="matrix(0.3963 -0.9181 0.9181 0.3963 41.9741 248.0264)" class="st3" width="4.9" height="1.9"/>
		
			<rect x="209.9" y="92.3" transform="matrix(0.3963 -0.9181 0.9181 0.3963 42.5434 251.2608)" class="st3" width="4.9" height="1.9"/>
		
			<rect x="212.6" y="93.5" transform="matrix(0.3963 -0.9181 0.9181 0.3963 43.1128 254.4952)" class="st3" width="4.9" height="1.9"/>
		
			<rect x="217.9" y="96" transform="matrix(0.3963 -0.9181 0.9181 0.3963 44.1989 260.6654)" class="st3" width="4.9" height="1.4"/>
		
			<rect x="215.4" y="94.7" transform="matrix(0.3963 -0.9181 0.9181 0.3963 43.6821 257.7296)" class="st3" width="4.9" height="1.9"/>
		
			<rect x="219.8" y="97.2" transform="matrix(0.3963 -0.9181 0.9181 0.3963 44.6075 262.9868)" class="st3" width="4.9" height="0.8"/>
		
			<rect x="204.9" y="90.8" transform="matrix(0.3963 -0.9181 0.9181 0.3963 41.5189 245.4404)" class="st3" width="4.9" height="0.7"/>
	</g>
	<g>
		<path d="M-313.1,268.5l-12.3-3l-0.4,3.1c-0.5,4.2-1.6,8.3-3,12.3l-1.1,2.9c0,0,3.6-2.1,7-1.4c2.1,0.4,4,3.3,5.3,4.4l0.4-1.5
			l0.1-1.3c0.5-4.3,1.5-8.6,3-12.7L-313.1,268.5z"/>
		<rect x="-320.2" y="257.3" transform="matrix(0.239 -0.971 0.971 0.239 -498.3709 -108.5794)" width="3.5" height="12.7"/>
		<path d="M-317.6,260.1c3.5,0.8,7.9-5,9.9-13.1c2-8.1-1.5-20.8-1.5-20.8s-9,9.6-11,17.7C-322.2,252-321,259.3-317.6,260.1z
			 M-312.9,233.8c-5.6,10.4-3.3,20.9-6,20.2C-322,251.1-315.7,235.5-312.9,233.8z"/>
		<path d="M-323.5,284.1c-5.7-1.4-12.9,7.6-25.5,58.8c-12.6,51.2-12.7,71.5-6.9,72.9c5.7,1.4,15.1-16.6,27.7-67.8
			C-315.6,296.8-317.7,285.5-323.5,284.1z M-354,385.5c-4.3-5.4,17.8-81.5,22.7-89.7C-354.5,380.4-351.6,380.5-354,385.5z"/>
	</g>
	<g>
		<path class="st3" d="M-326.9,380.8l-0.3,0.9l-0.4,1.2c-1,3.1-0.1,6.1,2.1,6.9l8.7,2.8c2.2,0.7,4.8-1.2,5.8-4.3l0.4-1.2l0.3-0.9
			l0.4-1.2l-16.6-5.4L-326.9,380.8z"/>
		<polygon class="st3" points="-273.9,273.6 -274.7,262.6 -282.6,260 -289.7,268.4 -281.8,271 		"/>
		<polygon class="st3" points="-274.7,260.9 -274.8,255.5 -275,250.2 -278.3,254.4 -281.6,258.6 -278.1,259.7 		"/>
		
			<rect x="-348" y="324" transform="matrix(0.3108 -0.9505 0.9505 0.3108 -511.9762 -56.1838)" class="st3" width="106.5" height="2"/>
		
			<rect x="-355.1" y="316.9" transform="matrix(0.3108 -0.9505 0.9505 0.3108 -514.6774 -64.578)" class="st3" width="106.5" height="11.4"/>
		
			<rect x="-344.7" y="325.2" transform="matrix(0.3108 -0.9505 0.9505 0.3108 -510.7366 -52.3316)" class="st3" width="106.5" height="1.6"/>
		
			<rect x="-318.8" y="368.9" transform="matrix(0.3108 -0.9505 0.9505 0.3108 -577.1927 -40.7302)" class="st3" width="4.3" height="17.4"/>
	</g>
	<g>
		<path class="st3" d="M-259.6,305.8c3.3,1.4,5.3,4.5,5.4,7.9c0.6-1,1.2-2.3,1.7-3.7c1.6-4.4,2-9.1,1.6-13.7l-2.6-25.3l-14.3,33.1
			l-1.5,3.4C-266.8,305.2-263,304.4-259.6,305.8z M-252.7,302.1c-1.5-1.3-2.3-3.1-2.3-5c0-4.3,0.2-12.2,0.9-15.8L-252.7,302.1z"/>
		<path class="st3" d="M-268.7,311.7L-268.7,311.7l1.3,0.6l0.1,0l0,0.1l1.3,0.6l0,0l1.3,0.6l0.1,0l0,0.1l1.3,0.6l0,0l1.3,0.6l0.1,0
			l0,0.1l1.3,0.6l0,0l1.3,0.6l0.1,0l0,0.1l1.3,0.6l0,0l1.4,0.6l0.9,0.4c0.3-0.7,0.5-1.4,0.6-2.1l-0.9,0.4l-0.4-1l1-0.4l0.3,0.8
			c0.2-1.8-0.2-3.5-1.1-5.1l0.1,0c-0.2-0.3-0.4-0.6-0.6-0.9l0,0c-0.4-0.5-0.8-1-1.4-1.5l0,0c-0.1-0.1-0.1-0.2-0.2-0.2l-0.9,0.4
			l-0.4-1l0.2-0.1c-0.3-0.1-0.5-0.3-0.8-0.4c-0.3-0.1-0.6-0.2-0.8-0.3l0.1,0.2l-1,0.4l-0.4-0.9c-0.1,0-0.2,0-0.3,0l0,0
			c-0.2,0-0.4,0-0.6,0c-0.1,0-0.2,0-0.4,0l0,0c-0.4,0-0.7,0-1.1,0l0,0c-0.3,0-0.7,0.1-1,0.2l0,0.1c-0.6,0.1-1.1,0.3-1.6,0.6
			c-0.1,0-0.3,0.1-0.4,0.1l0,0.1c-0.9,0.5-1.8,1.1-2.4,1.9l0.8-0.3l0.4,1l-1,0.4l-0.4-0.9c-0.5,0.6-0.9,1.2-1.2,1.9l0.9,0.4
			L-268.7,311.7z M-265.9,312.9l-0.4-1l1-0.4l0.4,1L-265.9,312.9z M-259.3,312.5l-0.4-1l1-0.4l0.4,1L-259.3,312.5z M-257.9,313
			l0.4,1l-1,0.4l-0.4-1L-257.9,313z M-260.2,312.9l-1,0.4l-0.4-1l1-0.4L-260.2,312.9z M-260,310.6l-0.4-1l1-0.4l0.4,0.9L-260,310.6z
			 M-261,310.9l-1,0.4l-0.4-1l1-0.4L-261,310.9z M-263,311.7l-1,0.4l-0.4-1l1-0.4L-263,311.7z M-262.8,309.4l-0.4-1l1-0.4l0.4,1
			L-262.8,309.4z M-263.7,309.7l-1,0.4l-0.4-1l1-0.4L-263.7,309.7z M-265.7,310.5l-1,0.4l-0.4-1l1-0.4L-265.7,310.5z M-263.2,314.1
			l-0.4-1l1-0.4l0.4,1L-263.2,314.1z M-260.4,315.3l-0.4-1l1-0.4l0.4,1L-260.4,315.3z M-256.7,316l-1,0.4l-0.4-1l1-0.4L-256.7,316z
			 M-256.5,313.7l-0.4-1l1-0.4l0.4,1.1L-256.5,313.7z M-256.3,311.4l-1,0.4l-0.4-1l1-0.4L-256.3,311.4z M-257.4,308.4l0.4,0.9
			l-1,0.4l-0.4-0.9L-257.4,308.4z M-260.2,307.2l0.4,1l-1,0.4l-0.4-1L-260.2,307.2z M-263,306l0.4,1l-1,0.4l-0.4-1L-263,306z
			 M-264.5,307.8l-1,0.4l-0.4-1l1-0.4L-264.5,307.8z M-267.9,308l1-0.4l0.4,1l-1,0.4L-267.9,308z M-268.1,310.3l0.4,1l-1,0.4l-0.4-1
			L-268.1,310.3z"/>
		<path class="st3" d="M-275.5,321.1l15.6,6.7l1.5-3.4l-15.6-6.7L-275.5,321.1z M-267,322.1l7.4,3.2l-0.4,1l-7.4-3.2L-267,322.1z"/>
		<path class="st3" d="M-304.9,389.1c-1,2.4,0.1,5.1,2.4,6.1l7,3c2.4,1,5.1-0.1,6.1-2.4l29-67.2l-15.6-6.7L-304.9,389.1z
			 M-265.3,331.1c0.1-0.2,0.4-0.4,0.6-0.3c0.2,0.1,0.4,0.4,0.3,0.6l-27.8,64.5c-0.1,0.2-0.4,0.4-0.6,0.3c-0.2-0.1-0.4-0.4-0.3-0.6
			L-265.3,331.1z M-269.8,334.8c0.1-0.2,0.4-0.3,0.6-0.2l0,0c0.2,0.1,0.3,0.4,0.2,0.6l-25.8,59.8c-0.1,0.2-0.4,0.3-0.6,0.2l0,0
			c-0.2-0.1-0.3-0.4-0.2-0.6L-269.8,334.8z"/>
		
			<rect x="-272.4" y="314.3" transform="matrix(0.3963 -0.9181 0.9181 0.3963 -452.4543 -57.5026)" class="st3" width="4.9" height="1.9"/>
		
			<rect x="-269.6" y="315.5" transform="matrix(0.3963 -0.9181 0.9181 0.3963 -451.8849 -54.2683)" class="st3" width="4.9" height="1.9"/>
		
			<rect x="-266.9" y="316.7" transform="matrix(0.3963 -0.9181 0.9181 0.3963 -451.3156 -51.0339)" class="st3" width="4.9" height="1.9"/>
		
			<rect x="-261.7" y="319.2" transform="matrix(0.3963 -0.9181 0.9181 0.3963 -450.2295 -44.8636)" class="st3" width="4.9" height="1.4"/>
		
			<rect x="-264.2" y="317.9" transform="matrix(0.3963 -0.9181 0.9181 0.3963 -450.7463 -47.7995)" class="st3" width="4.9" height="1.9"/>
		
			<rect x="-259.7" y="320.4" transform="matrix(0.3963 -0.9181 0.9181 0.3963 -449.8209 -42.5423)" class="st3" width="4.9" height="0.8"/>
		
			<rect x="-274.6" y="314" transform="matrix(0.3963 -0.9181 0.9181 0.3963 -452.9095 -60.0887)" class="st3" width="4.9" height="0.7"/>
	</g>
	<rect x="63.4" y="141.7" class="st4" width="124.7" height="71.8"/>
	<text transform="matrix(1 0 0 1 63.4138 168.1824)"><tspan x="0" y="0" class="st2 st5 st6 st7">Palmer </tspan><tspan x="0" y="36" class="st2 st5 st6 st7">Design </tspan></text>
	<path class="st2" d="M194.5,224.9c1.3,2.1-6.8,9.2-18,15.8c-11.2,6.6-21.3,10.2-22.6,8s9.1-5.3,20.3-11.9
		C185.4,230.2,193.2,222.7,194.5,224.9z"/>
	<g>
		<path class="st3" d="M-327.1,171.3c-4.7,12.9-20,20.9-38.2,20.9c-18.1,0-33.4-8-38.2-20.9c-1,5.6-1.5,11.5-1.5,17.5
			c0,35.5,17.8,64.3,39.7,64.3c21.9,0,39.7-28.8,39.7-64.3C-325.6,182.7-326.2,176.8-327.1,171.3z"/>
		<path class="st3" d="M-368.1,187.4v-11.2c-3-0.4-5.3-3-5.3-6.1v-22.2c0-3.1,2.3-5.7,5.3-6.1v-17.1c-15.8,1.8-29.1,18.6-34.4,41.7
			C-397.2,178-383.9,186.5-368.1,187.4z"/>
		<path class="st3" d="M-357.2,147.9v22.2c0,3.1-2.3,5.7-5.3,6.1v11.2c15.8-0.9,29.1-9.3,34.4-20.9c-5.3-23.1-18.5-39.9-34.4-41.7
			v17.1C-359.5,142.3-357.2,144.9-357.2,147.9z"/>
		<path class="st3" d="M-370.3,152.2v13.7c0,2.1,1.7,3.8,3.8,3.8h2.4c2.1,0,3.8-1.7,3.8-3.8v-13.7c0-2.1-1.7-3.8-3.8-3.8h-2.4
			C-368.6,148.3-370.3,150.1-370.3,152.2z"/>
	</g>
	<path class="st3" d="M127.8,46.7l-0.8,3.2l12.9,3.1l-0.4,1.6l-12.9-3.1l-1.1,4.8l8.4,2l-0.4,1.6l-8.4-2l-1,4.4l12.9,3.1l-0.4,1.6
		L123.6,64l-1.1,4.8l8.4,2l-0.4,1.6l-8.4-2l-1,4.4l12.9,3.1l-0.4,1.6l-12.9-3.1l-1.1,4.8l8.4,2l-0.4,1.6l-8.4-2l-1,4.4l12.9,3.1
		l-0.4,1.6l-12.9-3.1l-1.1,4.8l8.4,2l-0.4,1.6l-8.4-2l-1,4.4l12.9,3.1l-0.4,1.6L118,102c0.3,0.5,0.3,1.1-0.1,1.5c0,0,0,0,0,0
		c0,0,0,0,0,0c0,0.1-0.1,0.2-0.1,0.2c-0.1,0.2-0.2,0.4-0.3,0.6c-0.3,0.6-1,0.7-1.5,0.4c0,0,0,0-0.1,0.1c0.7,0.1,1.4,0.9,0.9,1.8
		c0,0,0,0.1-0.1,0.1l2,0.5c0.3-0.1,0.7,0,0.9,0.2l2.3,0.5l-0.4,1.6l-1.7-0.4c-0.1,0.3-0.3,0.5-0.4,0.8c0,0.1-0.1,0.2-0.1,0.3
		c0,1.1,0,2.3-0.1,3.4l5.8,1.4l-0.4,1.6l-5.6-1.3c-0.1,0.9-0.3,1.8-0.5,2.8c0,0,0,0.1,0,0.1c0,0.2,0,0.4,0,0.6
		c0,0.8-0.6,1.2-1.3,1.1c0,0,0,0,0,0l1.7,0.4l-0.4,1.6l-0.6-0.2c0.1,0.2,0.2,0.5,0.1,0.8c0,0.1,0.1,0.2,0.1,0.3c0,0,0,0,0,0.1
		c0.5-0.4,1.2-0.6,2-0.3c0.5,0.2,1,0.3,1.5,0.5c0.4-0.1,0.8-0.1,1.2,0c1.3,0.3,2.6,0,3.9,0.1c0.3,0,0.5,0.1,0.7,0.2
		c0.8,0,1.6,0,2.3,0c0.1,0,0.2,0,0.3-0.1c1.2-0.5,2.7-0.5,4-0.5c0.7-2.7,1.9-5.2,2.8-7.8l15-62.6L127.8,46.7z"/>
	<g>
		<g>
			<path d="M-243.3,122.2c1.9,0,1.9-3,0-3C-245.2,119.2-245.2,122.2-243.3,122.2L-243.3,122.2z"/>
		</g>
	</g>
	<g>
		<g>
			<path d="M-255.3,143.8c4.7-5.6,10.8-7.7,17.4-3.8c3.7,2.2,7.6,4.4,12,4.5c7.7,0.1,15.9-4.1,17.6-11.9c0.4-1.9-2.5-2.7-2.9-0.8
				c-0.8,3.4-2.2,5.5-5.4,7c-2.2,1.1-4.7,2-7.2,2.4c-6.6,1-10.8-3.6-16.3-6c-6.4-2.7-13.3,1.5-17.3,6.3
				C-258.7,143.2-256.6,145.3-255.3,143.8L-255.3,143.8z"/>
		</g>
	</g>
	<g>
		<g>
			<path d="M-294.1,169.1c5-2,11.6,2.4,14.5,6.4c2.2,3.1,1.9,3.6,0.2,6.8c-0.3,0.6-0.8,1.1-1.2,1.8c-0.4,0.8-0.8,1.6-0.7,2.6
				c0.1,2.6,2.8,4.8,5,5.7c2,0.9,4.6,1.7,6.7,1.9c1.5,0.1,3.1-0.8,4.6-0.5c1.1,0.2,2-1.1,1.2-2c-3.2-3.3-9.1,0.9-12.8-2.2
				c-0.7-1.9-1.5-3.9-2.2-5.8c0.3-0.5,0.6-0.9,0.9-1.4c0.1-0.5,0.7-1.1,0.9-1.7c0.5-1.5,0.3-3.1-0.1-4.6c-1.2-3.9-5.3-4.1-8.4-6.2
				c-2.7-1.8-5.4-2.2-8.5-1.1C-294.3,168.9-294.3,169.1-294.1,169.1L-294.1,169.1z"/>
		</g>
	</g>
	<g>
		<g>
			<path d="M-303-50.7c2.3,7.2,8.6,10.8,14.7,14.5c3.8,2.3,8.2,4.7,10.6,8.5c3.9,5.9,2.2,13.8-0.5,19.9c-4.6,10-13.6,17.9-15.9,29.1
				c-1.4,7.1-0.3,19.4,8.1,21.8c1.8,0.5,3.7-1.6,2.5-3.3c-3-4.2-5.7-6.9-5.8-12.4c-0.1-5.7,2.1-10.7,5-15.5c5.5-9,13-17.4,13.6-28.4
				c0.5-8.3-4.1-15-11-19.1c-7.3-4.3-17.8-6.3-21.2-15C-302.9-50.9-303-50.8-303-50.7L-303-50.7z"/>
		</g>
	</g>
	<g>
		<g>
			<path d="M-275.7-44.3c6.1,7.6,14.2,14,19.2,22.4c6.4,10.6-1.2,19.3-7.2,27.9c-4,5.7-7.3,12.5-5.3,19.5c1.5,5.3,6.1,10.4,12,9.5
				c2.5-0.4,1.9-3.8,0-4.5c-9.7-3.4-8.2-12.7-3.7-20.1c3.8-6.3,9.2-12.1,10.3-19.6c1-6.4-1.9-11.9-6.1-16.6
				c-5.9-6.6-12.4-13-19-18.8C-275.6-44.6-275.8-44.4-275.7-44.3L-275.7-44.3z"/>
		</g>
	</g>
	<g>
		<g>
			<path d="M-237.7-19.1c-4.9,9.7,7.2,16.5,8.1,25.5c1,9.5-13.2,19.2-5.5,28.5c1.6,1.9,4.2-0.2,3.8-2.2c-1.2-6.2,1.1-9.8,3.7-15.3
				c1.6-3.3,3-6.8,2.5-10.5c-1.3-10.1-15.5-14.9-12.5-26C-237.4-19.1-237.6-19.2-237.7-19.1L-237.7-19.1z"/>
		</g>
	</g>
	<g>
		<g>
			<path d="M-216.3,0c-0.5,3.8-0.1,6.1,2.4,9.2c1.3,1.6,3,3,4.3,4.5c2,2.4,2.3,4.5,2.5,7.4c0.1,1.9,2.8,2.9,3.8,1
				C-198.3,12-216.7,8.8-215.8,0C-215.8-0.3-216.3-0.3-216.3,0L-216.3,0z"/>
		</g>
	</g>
</g>
<g id="Layer_3" class="st0">
	<ellipse class="st8" cx="122.9" cy="108.3" rx="113.4" ry="19"/>
	<path class="st8" d="M223.7,245.9H22.1c-7,0-12.7-5.7-12.7-12.7V120.9c0-7,5.7-12.7,12.7-12.7h201.6c7,0,12.7,5.7,12.7,12.7v112.3
		C236.4,240.2,230.7,245.9,223.7,245.9z"/>
</g>
</svg>
