<?xml version="1.0" encoding="utf-8"?>
<!-- Generator: Adobe Illustrator 19.2.0, SVG Export Plug-In . SVG Version: 6.00 Build 0)  -->
<svg version="1.1" id="Layer_1" xmlns="http://www.w3.org/2000/svg" xmlns:xlink="http://www.w3.org/1999/xlink" x="0px" y="0px"
	 viewBox="0 0 357 354.3" style="enable-background:new 0 0 357 354.3;" xml:space="preserve">
<style type="text/css">
	.st0{display:none;}
	.st1{display:inline;opacity:0.53;}
	.st2{fill:#010101;}
	.st3{fill:#FFFFFF;}
	.st4{fill:none;}
	.st5{font-family:'Charter-Roman';}
	.st6{font-size:36px;}
	.st7{fill:none;stroke:#000000;stroke-width:3;stroke-miterlimit:10;}
	.st8{display:inline;fill:none;stroke:#000000;stroke-miterlimit:10;}
</style>
<g id="Layer_1_1_" class="st0">
	<g id="fYXYYi.tif" class="st1">
		
			<image style="overflow:visible;enable-background:new    ;" width="1000" height="920" id="Layer_1_2_" xlink:href="74AD98E8A4700AE7.png"  transform="matrix(0.3371 0 0 0.3374 5.7066 63.4382)">
		</image>
	</g>
</g>
<g>
	<path d="M-281.2,341.5l-12.3-3l-0.4,3.1c-0.5,4.2-1.6,8.3-3,12.3l-1.1,2.9c0,0,3.6-2.1,7-1.4c2.1,0.4,4,3.3,5.3,4.4l0.4-1.5
		l0.1-1.3c0.5-4.3,1.5-8.6,3-12.7L-281.2,341.5z"/>
	<rect x="-288.3" y="330.3" transform="matrix(0.239 -0.971 0.971 0.239 -544.9256 -22.0672)" width="3.5" height="12.7"/>
	<path d="M-285.7,333.2c3.5,0.8,7.9-5,9.9-13.1s-1.5-20.8-1.5-20.8s-9,9.6-11,17.7C-290.3,325.1-289.1,332.3-285.7,333.2z
		 M-281,306.8c-5.6,10.4-3.3,20.9-6,20.2C-290.1,324.1-283.8,308.6-281,306.8z"/>
	<path d="M-291.6,357.1c-5.7-1.4-12.9,7.6-25.5,58.8s-12.7,71.5-6.9,72.9c5.7,1.4,15.1-16.6,27.7-67.8
		C-283.6,369.9-285.8,358.6-291.6,357.1z M-322.1,458.5c-4.3-5.4,17.8-81.5,22.7-89.7C-322.6,453.4-319.7,453.6-322.1,458.5z"/>
</g>
<g>
	<path class="st2" d="M-294.9,453.8l-0.3,0.9l-0.4,1.2c-1,3.1-0.1,6.1,2.1,6.9l8.7,2.8c2.2,0.7,4.8-1.2,5.8-4.3l0.4-1.2l0.3-0.9
		l0.4-1.2l-16.6-5.4L-294.9,453.8z"/>
	<polygon class="st2" points="-242,346.6 -242.8,335.7 -250.7,333.1 -257.8,341.4 -249.9,344 	"/>
	<polygon class="st2" points="-242.7,333.9 -242.9,328.6 -243.1,323.2 -246.4,327.4 -249.7,331.6 -246.2,332.8 	"/>
	
		<rect x="-316.1" y="397" transform="matrix(0.3108 -0.9505 0.9505 0.3108 -559.4611 24.505)" class="st2" width="106.5" height="2"/>
	
		<rect x="-323.2" y="390" transform="matrix(0.3108 -0.9505 0.9505 0.3108 -562.1 16.1673)" class="st2" width="106.5" height="11.4"/>
	
		<rect x="-312.7" y="398.3" transform="matrix(0.3108 -0.9505 0.9505 0.3108 -558.172 28.442)" class="st2" width="106.5" height="1.6"/>
	
		<rect x="-286.8" y="441.9" transform="matrix(0.3108 -0.9505 0.9505 0.3108 -624.5083 39.9994)" class="st2" width="4.3" height="17.4"/>
</g>
<g>
	<path class="st2" d="M-227.7,378.9c3.3,1.4,5.3,4.5,5.4,7.9c0.6-1,1.2-2.3,1.7-3.7c1.6-4.4,2-9.1,1.6-13.7l-2.6-25.3l-14.3,33.1
		l-1.5,3.4C-234.8,378.2-231.1,377.4-227.7,378.9z M-220.7,375.2c-1.5-1.3-2.3-3.1-2.3-5c0-4.3,0.2-12.2,0.9-15.8L-220.7,375.2z"/>
	<path class="st2" d="M-236.7,384.8L-236.7,384.8l1.3,0.6h0.1v0.1l1.3,0.6l0,0l1.3,0.6h0.1v0.1l1.3,0.6l0,0l1.3,0.6h0.1v0.1l1.3,0.6
		l0,0l1.3,0.6h0.1v0.1l1.3,0.6l0,0l1.4,0.6l0.9,0.4c0.3-0.7,0.5-1.4,0.6-2.1l-0.9,0.4l-0.4-1l1-0.4l0.3,0.8c0.2-1.8-0.2-3.5-1.1-5.1
		h0.1c-0.2-0.3-0.4-0.6-0.6-0.9l0,0c-0.4-0.5-0.8-1-1.4-1.5l0,0c-0.1-0.1-0.1-0.2-0.2-0.2l-0.9,0.4l-0.4-1l0.2-0.1
		c-0.3-0.1-0.5-0.3-0.8-0.4s-0.6-0.2-0.8-0.3l0.1,0.2l-1,0.4l-0.4-0.9c-0.1,0-0.2,0-0.3,0l0,0c-0.2,0-0.4,0-0.6,0
		c-0.1,0-0.2,0-0.4,0l0,0c-0.4,0-0.7,0-1.1,0l0,0c-0.3,0-0.7,0.1-1,0.2v0.1c-0.6,0.1-1.1,0.3-1.6,0.6c-0.1,0-0.3,0.1-0.4,0.1v0.1
		c-0.9,0.5-1.8,1.1-2.4,1.9l0.8-0.3l0.4,1l-1,0.4l-0.4-0.9c-0.5,0.6-0.9,1.2-1.2,1.9l0.9,0.4L-236.7,384.8z M-234,385.9l-0.4-1
		l1-0.4l0.4,1L-234,385.9z M-227.3,385.6l-0.4-1l1-0.4l0.4,1L-227.3,385.6z M-225.9,386.1l0.4,1l-1,0.4l-0.4-1L-225.9,386.1z
		 M-228.3,386l-1,0.4l-0.4-1l1-0.4L-228.3,386z M-228.1,383.6l-0.4-1l1-0.4l0.4,0.9L-228.1,383.6z M-229.1,384l-1,0.4l-0.4-1l1-0.4
		L-229.1,384z M-231,384.8l-1,0.4l-0.4-1l1-0.4L-231,384.8z M-230.8,382.4l-0.4-1l1-0.4l0.4,1L-230.8,382.4z M-231.8,382.8l-1,0.4
		l-0.4-1l1-0.4L-231.8,382.8z M-233.8,383.6l-1,0.4l-0.4-1l1-0.4L-233.8,383.6z M-231.3,387.1l-0.4-1l1-0.4l0.4,1L-231.3,387.1z
		 M-228.5,388.3l-0.4-1l1-0.4l0.4,1L-228.5,388.3z M-224.7,389.1l-1,0.4l-0.4-1l1-0.4L-224.7,389.1z M-224.6,386.7l-0.4-1l1-0.4
		l0.4,1.1L-224.6,386.7z M-224.3,384.4l-1,0.4l-0.4-1l1-0.4L-224.3,384.4z M-225.5,381.5l0.4,0.9l-1,0.4l-0.4-0.9L-225.5,381.5z
		 M-228.3,380.2l0.4,1l-1,0.4l-0.4-1L-228.3,380.2z M-231.1,379.1l0.4,1l-1,0.4l-0.4-1L-231.1,379.1z M-232.6,380.8l-1,0.4l-0.4-1
		l1-0.4L-232.6,380.8z M-236,381l1-0.4l0.4,1l-1,0.4L-236,381z M-236.1,383.3l0.4,1l-1,0.4l-0.4-1L-236.1,383.3z"/>
	<path class="st2" d="M-243.6,394.1l15.6,6.7l1.5-3.4l-15.6-6.7L-243.6,394.1z M-235.1,395.2l7.4,3.2l-0.4,1l-7.4-3.2L-235.1,395.2z
		"/>
	<path class="st2" d="M-273,462.2c-1,2.4,0.1,5.1,2.4,6.1l7,3c2.4,1,5.1-0.1,6.1-2.4l29-67.2l-15.6-6.7L-273,462.2z M-233.4,404.1
		c0.1-0.2,0.4-0.4,0.6-0.3c0.2,0.1,0.4,0.4,0.3,0.6l-27.8,64.5c-0.1,0.2-0.4,0.4-0.6,0.3s-0.4-0.4-0.3-0.6L-233.4,404.1z
		 M-237.8,407.8c0.1-0.2,0.4-0.3,0.6-0.2l0,0c0.2,0.1,0.3,0.4,0.2,0.6l-25.8,59.8c-0.1,0.2-0.4,0.3-0.6,0.2l0,0
		c-0.2-0.1-0.3-0.4-0.2-0.6L-237.8,407.8z"/>
	
		<rect x="-240.4" y="387.4" transform="matrix(0.3963 -0.9181 0.9181 0.3963 -500.1996 15.9603)" class="st2" width="4.9" height="1.9"/>
	
		<rect x="-237.7" y="388.5" transform="matrix(0.3963 -0.9181 0.9181 0.3963 -499.6238 19.131)" class="st2" width="4.9" height="1.9"/>
	
		<rect x="-234.9" y="389.7" transform="matrix(0.3963 -0.9181 0.9181 0.3963 -499.029 22.41)" class="st2" width="4.9" height="1.9"/>
	
		<rect x="-229.7" y="392.3" transform="matrix(0.3963 -0.9181 0.9181 0.3963 -498.0098 28.5749)" class="st2" width="4.9" height="1.4"/>
	
		<rect x="-232.3" y="391" transform="matrix(0.3963 -0.9181 0.9181 0.3963 -498.5615 25.5998)" class="st2" width="4.9" height="1.9"/>
	
		<rect x="-227.8" y="393.4" transform="matrix(0.3963 -0.9181 0.9181 0.3963 -497.5529 30.8537)" class="st2" width="4.9" height="0.8"/>
	
		<rect x="-242.7" y="387" transform="matrix(0.3963 -0.9181 0.9181 0.3963 -500.6288 13.245)" class="st2" width="4.9" height="0.7"/>
</g>
<g>
	<path class="st2" d="M-295.2,244.3c-4.7,12.9-20,20.9-38.2,20.9c-18.1,0-33.4-8-38.2-20.9c-1,5.6-1.5,11.5-1.5,17.5
		c0,35.5,17.8,64.3,39.7,64.3c21.9,0,39.7-28.8,39.7-64.3C-293.7,255.8-294.2,249.9-295.2,244.3z"/>
	<path class="st2" d="M-336.2,260.4v-11.2c-3-0.4-5.3-3-5.3-6.1V221c0-3.1,2.3-5.7,5.3-6.1v-17.1c-15.8,1.8-29.1,18.6-34.4,41.7
		C-365.3,251.1-352,259.5-336.2,260.4z"/>
	<path class="st2" d="M-325.3,221v22.2c0,3.1-2.3,5.7-5.3,6.1v11.2c15.8-0.9,29.1-9.3,34.4-20.9c-5.3-23.1-18.5-39.9-34.4-41.7V215
		C-327.6,215.3-325.3,217.9-325.3,221z"/>
	<path class="st2" d="M-338.4,225.2v13.7c0,2.1,1.7,3.8,3.8,3.8h2.4c2.1,0,3.8-1.7,3.8-3.8v-13.7c0-2.1-1.7-3.8-3.8-3.8h-2.4
		C-336.6,221.4-338.4,223.1-338.4,225.2z"/>
</g>
<g>
	<g>
		<path d="M-229.1,179.1c1.9,0,1.9-3,0-3S-231,179.1-229.1,179.1L-229.1,179.1z"/>
	</g>
</g>
<g>
	<g>
		<path d="M-241.1,200.7c4.7-5.6,10.8-7.7,17.4-3.8c3.7,2.2,7.6,4.4,12,4.5c7.7,0.1,15.9-4.1,17.6-11.9c0.4-1.9-2.5-2.7-2.9-0.8
			c-0.8,3.4-2.2,5.5-5.4,7c-2.2,1.1-4.7,2-7.2,2.4c-6.6,1-10.8-3.6-16.3-6c-6.4-2.7-13.3,1.5-17.3,6.3
			C-244.5,200-242.4,202.1-241.1,200.7L-241.1,200.7z"/>
	</g>
</g>
<g>
	<g>
		<path d="M-279.9,225.9c5-2,11.6,2.4,14.5,6.4c2.2,3.1,1.9,3.6,0.2,6.8c-0.3,0.6-0.8,1.1-1.2,1.8c-0.4,0.8-0.8,1.6-0.7,2.6
			c0.1,2.6,2.8,4.8,5,5.7c2,0.9,4.6,1.7,6.7,1.9c1.5,0.1,3.1-0.8,4.6-0.5c1.1,0.2,2-1.1,1.2-2c-3.2-3.3-9.1,0.9-12.8-2.2
			c-0.7-1.9-1.5-3.9-2.2-5.8c0.3-0.5,0.6-0.9,0.9-1.4c0.1-0.5,0.7-1.1,0.9-1.7c0.5-1.5,0.3-3.1-0.1-4.6c-1.2-3.9-5.3-4.1-8.4-6.2
			c-2.7-1.8-5.4-2.2-8.5-1.1C-280.1,225.7-280,226-279.9,225.9L-279.9,225.9z"/>
	</g>
</g>
<g>
	<g>
		<path d="M-260.2,5c2.3,7.2,8.6,10.8,14.7,14.5c3.8,2.3,8.2,4.7,10.6,8.5c3.9,5.9,2.2,13.8-0.5,19.9c-4.6,10-13.6,17.9-15.9,29.1
			c-1.4,7.1-0.3,19.4,8.1,21.8c1.8,0.5,3.7-1.6,2.5-3.3c-3-4.2-5.7-6.9-5.8-12.4c-0.1-5.7,2.1-10.7,5-15.5c5.5-9,13-17.4,13.6-28.4
			c0.5-8.3-4.1-15-11-19.1c-7.3-4.3-17.8-6.3-21.2-15C-260.1,4.9-260.2,4.9-260.2,5L-260.2,5z"/>
	</g>
</g>
<g>
	<g>
		<path d="M-232.8,11.5c6.1,7.6,14.2,14,19.2,22.4c6.4,10.6-1.2,19.3-7.2,27.9c-4,5.7-7.3,12.5-5.3,19.5c1.5,5.3,6.1,10.4,12,9.5
			c2.5-0.4,1.9-3.8,0-4.5c-9.7-3.4-8.2-12.7-3.7-20.1c3.8-6.3,9.2-12.1,10.3-19.6c1-6.4-1.9-11.9-6.1-16.6c-5.9-6.6-12.4-13-19-18.8
			C-232.8,11.1-233,11.3-232.8,11.5L-232.8,11.5z"/>
	</g>
</g>
<g>
	<g>
		<path d="M-194.8,36.6c-4.9,9.7,7.2,16.5,8.1,25.5c1,9.5-13.2,19.2-5.5,28.5c1.6,1.9,4.2-0.2,3.8-2.2c-1.2-6.2,1.1-9.8,3.7-15.3
			c1.6-3.3,3-6.8,2.5-10.5c-1.3-10.1-15.5-14.9-12.5-26C-194.6,36.6-194.8,36.5-194.8,36.6L-194.8,36.6z"/>
	</g>
</g>
<g>
	<g>
		<path d="M-173.5,55.7c-0.5,3.8-0.1,6.1,2.4,9.2c1.3,1.6,3,3,4.3,4.5c2,2.4,2.3,4.5,2.5,7.4c0.1,1.9,2.8,2.9,3.8,1
			c5.1-10.2-13.3-13.3-12.4-22.1C-172.9,55.4-173.4,55.4-173.5,55.7L-173.5,55.7z"/>
	</g>
</g>
<g>
	<path d="M288.6,178.9c-0.7-0.2-1.4-0.4-2.2-0.5c2-13.9,2.4-24.7,2.4-29.5H56.6c0,18.2,5.7,123.4,84.5,149.3
		c20.5,6.7,42.8,6.7,63.3,0c30.2-9.9,49.7-31.5,62.2-55.4c1,0.6,2.2,1,3.3,1.3c12.6,3.6,27-8.1,32.1-26.1S301.1,182.5,288.6,178.9z
		 M86.2,238.7c-8.5-13.5-18.3-43.2-20.9-59.1c-0.5-2.9,1.8-5.4,4.2-4.6c5.9,1.8,13.6,2,17.9,2c1.9,0,3.4,1.7,3.4,3.8
		c-2.3,17.9-1.9,36,1.2,53.7l0.3,1.7C92.5,240.1,88.2,241.8,86.2,238.7z M295.1,216.1c-3.6,12.6-13.7,20.8-22.5,18.3
		c-0.6-0.2-1.2-0.4-1.7-0.7c6.9-15.4,11.2-31.3,13.8-45.3c0.4,0.1,0.7,0.1,1,0.2C294.6,191.2,298.8,203.5,295.1,216.1z"/>
	<g>
		<path class="st3" d="M237.6,138c-0.2,0.6-0.3,1.1-0.4,1.7c-0.2,1-1.4,1.6-2.4,1.3c-0.5-0.1-0.8-0.4-1-0.7
			c-0.1,0.2-0.2,0.3-0.3,0.4c-0.8,0.8-1.9,0.6-2.7,0c-0.9-0.7-0.9-2-0.4-2.9c0.1-0.1,0.1-0.2,0.2-0.3c-10.5-0.7-22.1-1.2-34.3-1.5
			c-0.2,0.4-0.3,0.8-0.5,1.1c0,0-0.1,0.2-0.1,0.3c2,1.2,0.1,4.4-2,3.3c-2-1.1-2.1-2.9-1.5-4.8c-6.3-0.1-12.8-0.2-19.4-0.2
			c-6.7,0-13.3,0.1-19.7,0.2c0.2,0.4,0.2,0.8,0.1,1.2c-0.1,0.2-0.1,0.3-0.2,0.5c0.4,0.2,0.8,0.4,0.9,0.4c2.3,1,0.3,4.3-1.9,3.3
			c-0.9-0.4-1.9-0.8-2.7-1.5c-1.1,0-2.2-0.2-3.2-0.7c-1.7,1.2-4.5,0.7-6.5-0.1c-1.2,0.1-2.5,0-3.8-0.4c-0.2,0-0.3-0.1-0.4-0.2
			c-0.3,0.2-0.6,0.4-0.9,0.5c-0.1,0.2-0.1,0.4-0.2,0.7c-0.5,2.2-3.7,1.6-3.8-0.5c0-0.8,0-1.6,0.1-2.4c-43.2,1.9-73.8,6.7-73.8,12.3
			c0,7.3,52,13.2,116.1,13.2S289,156.3,289,149C288.8,144.4,268.5,140.4,237.6,138z"/>
		<path class="st2" d="M230.4,137.8c0.2-0.3,0.4-0.5,0.6-0.8c-10.8-0.7-22.5-1.2-34.5-1.5c-0.1,0.3-0.3,0.6-0.4,1
			c12.5,0.3,23.9,0.8,34.2,1.5C230.3,137.9,230.3,137.9,230.4,137.8z"/>
		<path class="st2" d="M153.2,136.4c6.3-0.1,12.8-0.2,19.5-0.2c6.6,0,13.1,0.1,19.3,0.2c0.1-0.3,0.2-0.7,0.3-1
			c-6.5-0.1-13.1-0.2-19.6-0.2c-6.7,0-13.4,0.1-20,0.2C152.9,135.7,153.1,136.1,153.2,136.4z"/>
		<path class="st2" d="M237.7,137.5c-0.1,0.3-0.2,0.6-0.2,0.9c31.8,2.4,50.9,6.6,50.9,10.5c0,6.1-46.5,12.7-115.6,12.7
			c-69.2,0-115.6-6.6-115.6-12.7c0-4.8,28.2-9.8,73.3-11.8c0-0.3,0.1-0.6,0.1-1c-41,1.8-74.4,6.3-74.4,12.8
			c0,8.6,59.3,13.7,116.6,13.7s116.6-5.1,116.6-13.7C289.3,143.8,267.6,139.8,237.7,137.5z"/>
	</g>
	<g>
		<path class="st3" d="M269,140.9c-0.3,0.6-0.6,1.1-1,1.6c-0.1,0.1-0.1,0.2-0.2,0.4c-0.2,0.3-0.4,0.5-0.7,0.7
			c-0.2,0.1-0.4,0.2-0.6,0.3c-0.3,0.1-0.5,0.2-0.8,0.2c-0.2,0.2-0.4,0.3-0.6,0.4c-0.7,1.5-1.2,3.1-2.2,4.4c-0.4,0.5-1,0.8-1.6,0.9
			c-0.5,2.1-3.8,1.5-3.8-0.6c0-1.2-0.1-2.8-0.1-4.5c0,0,0,0,0-0.1c-0.7,0.5-1.7,0.5-2.3-0.1c-0.3,0-0.6-0.1-0.9-0.3
			c-1.1,0.2-2.5-0.6-2.4-1.9c0.1-1.2,0.3-2.3,0.5-3.4c-4.3-0.4-8.9-0.8-13.8-1.1c-0.1,0.2-0.2,0.5-0.2,0.7c-0.1,0.3-0.3,0.6-0.5,0.8
			l0,0c-0.6,1.6-2.4,1.6-3.3,0.8c-0.1,0.2-0.1,0.5-0.2,0.7c-0.4,1.6-2.1,1.7-3.1,0.9c-0.1,0-0.2-0.1-0.3-0.1
			c-0.9-0.4-1.3-1.3-1.1-2.3c0.1-0.6,0.3-1.3,0.6-2c-9.1-0.5-19-0.9-29.5-1.2v0.1c0.8,0.1,1.5,0.5,1.7,1.4s-0.3,2.2-1.3,2.4
			c-1.2,0.2-2.2-0.1-3.2-0.7c-0.6,0-1.1-0.1-1.7-0.3c-0.3,0-0.6,0.1-0.9,0.1c-0.2,0.2-0.4,0.3-0.5,0.4c-1.6,1.2-3.3-0.9-2.7-2.4
			c0-0.4,0.1-0.8,0.3-1.1c-6.5-0.1-13.1-0.2-19.9-0.2c-6.7,0-13.3,0.1-19.7,0.2c0.2,0.4,0.2,0.8,0.1,1.2c-0.1,0.2-0.1,0.3-0.2,0.5
			c0.4,0.2,0.8,0.4,0.9,0.4c2.3,1,0.3,4.3-1.9,3.3c-0.9-0.4-1.9-0.8-2.7-1.5c-1.1,0-2.2-0.2-3.2-0.7c-1.7,1.2-4.5,0.7-6.5-0.1
			c-1.2,0.1-2.5,0-3.8-0.4c-0.2,0-0.3-0.1-0.4-0.2c-0.3,0.2-0.6,0.4-0.9,0.5c-0.1,0.2-0.1,0.4-0.2,0.7c-0.5,2.2-3.7,1.6-3.8-0.5
			c0-0.9,0-1.7,0.1-2.5c-43.2,1.7-73.9,5.9-73.9,10.8c0,6.4,52,11.6,116.1,11.6s116.1-5.2,116.1-11.6
			C288.8,144.9,281.5,142.7,269,140.9z"/>
		<path class="st2" d="M238.3,138.3c4.9,0.3,9.6,0.7,13.9,1.1c0.1-0.3,0.1-0.6,0.2-0.9c-4.3-0.4-8.9-0.8-13.8-1.1
			C238.5,137.6,238.4,137.9,238.3,138.3z"/>
		<path class="st2" d="M153.2,136.4c6.3-0.1,12.8-0.2,19.5-0.2c6.8,0,13.3,0.1,19.7,0.2c0.1-0.3,0.2-0.6,0.5-0.8
			c0.1-0.1,0.1-0.1,0.2-0.2c-6.7-0.1-13.5-0.2-20.3-0.2c-6.7,0-13.4,0.1-20,0.2C152.9,135.7,153.1,136,153.2,136.4z"/>
		<path class="st2" d="M269.2,140.4c-0.1,0.3-0.3,0.6-0.4,0.9c12.5,1.8,19.5,4,19.5,6c0,5.4-46.5,11.1-115.6,11.1
			c-69.2,0-115.6-5.7-115.6-11.1c0-4.2,28.2-8.6,73.3-10.3c0-0.3,0.1-0.6,0.1-1c-41,1.6-74.4,5.6-74.4,11.3
			c0,7.6,59.3,12.1,116.6,12.1s116.6-4.5,116.6-12.1C289.3,144.6,281.6,142.3,269.2,140.4z"/>
		<path class="st2" d="M230.5,136.8c-9.4-0.5-19.5-0.9-29.9-1.2c0.1,0.2,0.2,0.4,0.3,0.6c0.4,0,0.8,0.2,1.1,0.4
			c10.1,0.3,19.5,0.6,28.2,1.1C230.2,137.4,230.3,137.1,230.5,136.8z"/>
	</g>
	<g>
		<path class="st2" d="M117.7,157.6c1.8-0.6,3.6-0.4,5.5,0c0.6,0.1,1.2,0.3,1.9,0.4c-7.9-2.8-13.9-7.9-16.3-14.7
			c-0.8,4.4-1.3,9.1-1.4,13.9l0,0h0.1c0.1,0,0.3,0,0.4,0.1c0.3-0.1,0.6-0.2,1-0.3c2.7-0.1,5.4,0.5,8.1,0.9
			C117.2,157.9,117.4,157.7,117.7,157.6z"/>
		<path class="st2" d="M163.2,158.8c2.4,0.2,4.9,0.4,7.3,0.5c0-0.4,0-0.7,0-1.1c0.1-4.8-0.3-9.5-1-14c-2.7,7.2-9.7,12.4-18.6,14.7
			c1.3,0,2.7,0.1,4,0.3c0.4-0.3,0.9-0.5,1.5-0.4c0.2,0,0.4,0.1,0.6,0.1c0.5,0,1.1,0,1.6,0.1c0.4-0.4,0.9-0.6,1.6-0.6
			c0.8,0,1.5,0.2,2.3,0.4C162.8,158.7,163,158.7,163.2,158.8z"/>
		<path class="st2" d="M136.7,156.6l0.1-8.9c-2.4-0.4-4.2-2.5-4.1-4.9l0.3-17.6c0-2.5,1.9-4.5,4.3-4.8l0.2-13.6
			c-12.6,1.3-23.4,14.5-27.9,32.8C113.7,148.8,124.2,155.7,136.7,156.6z"/>
		<path class="st2" d="M145.9,125.3l-0.3,17.6c0,2.5-1.9,4.5-4.3,4.8l-0.1,8.9c12.6-0.5,23.3-7.1,27.6-16.2
			c-3.9-18.5-14.3-32-26.9-33.6l-0.2,13.6C144.1,120.8,145.9,122.8,145.9,125.3z"/>
		<path class="st2" d="M135.4,128.5l-0.2,10.9c0,1.7,1.3,3.1,3,3.1h1.9c1.7,0,3.1-1.3,3.1-3l0.2-10.9c0-1.7-1.3-3.1-3-3.1h-1.9
			C136.8,125.5,135.4,126.8,135.4,128.5z"/>
	</g>
	<g>
		<path d="M225.8,85.3l-12-4.2l-0.7,3c-0.9,4.1-2.3,8.1-4.1,11.9l-1.3,2.8c0,0,3.8-1.8,7.1-0.8c2.1,0.6,3.7,3.7,4.9,4.9l0.5-1.4
			l0.3-1.3c0.9-4.3,2.3-8.5,4.2-12.4L225.8,85.3z"/>
		<rect x="219.2" y="73.6" transform="matrix(0.3276 -0.9448 0.9448 0.3276 73.0268 262.5123)" width="3.5" height="12.7"/>
		<path d="M222.1,76.5c3.4,1.2,8.3-4.3,11-12.2s0.4-20.8,0.4-20.8s-9.8,8.7-12.6,16.6C218.3,68.1,218.8,75.4,222.1,76.5z
			 M229.3,50.8c-6.5,9.8-5.2,20.5-7.8,19.5C218.6,67.1,226.2,52.2,229.3,50.8z"/>
		<path d="M214.1,99.9c-5.6-1.9-13.6,6.4-30.8,56.2c-0.3,0.9-0.6,1.7-0.9,2.6c0.6,0,1.1,0.1,1.7,0.2c0.3,0,0.5,0,0.8,0
			c7.8-21.3,17.4-44,20.3-48.1c-7.8,20.7-13.4,36.1-17.5,47.8c0.3-0.1,0.6-0.1,0.9-0.1c0.8,0,1.7,0.3,2.4,0.8c2-0.5,4.6-0.4,5.6-0.6
			c1.5-0.2,2.8-0.2,4,0c0.3-0.2,0.6-0.3,1-0.3c0.8,0,1.6,0,2.3,0.3l0,0c0.4-0.1,0.7-0.1,1.1-0.2C220.7,112.6,219.5,101.7,214.1,99.9
			z"/>
	</g>
	<g>
		<polygon class="st2" points="258,87.7 257.8,76.7 250,73.7 242.5,81.6 250.2,84.7 		"/>
		<polygon class="st2" points="257.9,74.9 258,69.6 258.1,64.3 254.6,68.3 251.1,72.3 254.5,73.6 		"/>
		<path class="st2" d="M227.7,157.6l26.9-69.1l-1.8-0.7l-27.1,69.8C226.3,157.6,227,157.6,227.7,157.6z"/>
		<path class="st2" d="M224.7,157.6L252,87.5l-10.6-4.1l-29,74.5C216.5,157.6,220.6,157.5,224.7,157.6z"/>
		<path class="st2" d="M231.1,157.8l26.5-68.1l-1.5-0.6l-26.6,68.5c0.3,0,0.7,0.1,1,0.1C230.7,157.8,230.9,157.8,231.1,157.8z"/>
	</g>
	<g>
		<path class="st2" d="M269.7,118.5c3.3,1.4,5.3,4.5,5.4,7.9c0.6-1,1.2-2.3,1.7-3.7c1.6-4.4,2-9.1,1.6-13.7l-2.6-25.3l-14.3,33.1
			l-1.5,3.4C262.6,117.9,266.3,117.1,269.7,118.5z M276.7,114.8c-1.5-1.3-2.3-3.1-2.3-5c0-4.3,0.2-12.2,0.9-15.8L276.7,114.8z"/>
		<path class="st2" d="M260.6,124.4L260.6,124.4l1.3,0.6h0.1v0.1l1.3,0.6l0,0l1.3,0.6h0.1v0.1l1.3,0.6l0,0l1.3,0.6h0.1v0.1l1.3,0.6
			l0,0l1.3,0.6h0.1v0.1l1.3,0.6l0,0l1.4,0.6l0.9,0.4c0.3-0.7,0.5-1.4,0.6-2.1l-0.9,0.4l-0.4-1l1-0.4l0.3,0.8
			c0.2-1.8-0.2-3.5-1.1-5.1h0.1c-0.2-0.3-0.4-0.6-0.6-0.9l0,0c-0.4-0.5-0.8-1-1.4-1.5l0,0c-0.1-0.1-0.1-0.2-0.2-0.2l-0.9,0.4l-0.4-1
			l0.2-0.1c-0.3-0.1-0.5-0.3-0.8-0.4s-0.6-0.2-0.8-0.3l0.1,0.2l-1,0.4l-0.4-0.9c-0.1,0-0.2,0-0.3,0l0,0c-0.2,0-0.4,0-0.6,0
			c-0.1,0-0.2,0-0.4,0l0,0c-0.4,0-0.7,0-1.1,0l0,0c-0.3,0-0.7,0.1-1,0.2v0.1c-0.6,0.1-1.1,0.3-1.6,0.6c-0.1,0-0.3,0.1-0.4,0.1v0.1
			c-0.9,0.5-1.8,1.1-2.4,1.9l0.8-0.3l0.4,1l-1,0.4l-0.4-0.9c-0.5,0.6-0.9,1.2-1.2,1.9l0.9,0.4L260.6,124.4z M263.4,125.6l-0.4-1
			l1-0.4l0.4,1L263.4,125.6z M270.1,125.2l-0.4-1l1-0.4l0.4,1L270.1,125.2z M271.4,125.7l0.4,1l-1,0.4l-0.4-1L271.4,125.7z
			 M269.1,125.6l-1,0.4l-0.4-1l1-0.4L269.1,125.6z M269.3,123.3l-0.4-1l1-0.4l0.4,0.9L269.3,123.3z M268.3,123.6l-1,0.4l-0.4-1
			l1-0.4L268.3,123.6z M266.4,124.4l-1,0.4l-0.4-1l1-0.4L266.4,124.4z M266.5,122.1l-0.4-1l1-0.4l0.4,1L266.5,122.1z M265.6,122.4
			l-1,0.4l-0.4-1l1-0.4L265.6,122.4z M263.6,123.2l-1,0.4l-0.4-1l1-0.4L263.6,123.2z M266.1,126.8l-0.4-1l1-0.4l0.4,1L266.1,126.8z
			 M268.9,128l-0.4-1l1-0.4l0.4,1L268.9,128z M272.6,128.7l-1,0.4l-0.4-1l1-0.4L272.6,128.7z M272.8,126.4l-0.4-1l1-0.4l0.4,1.1
			L272.8,126.4z M273.1,124.1l-1,0.4l-0.4-1l1-0.4L273.1,124.1z M271.9,121.1l0.4,0.9l-1,0.4l-0.4-0.9L271.9,121.1z M269.1,119.9
			l0.4,1l-1,0.4l-0.4-1L269.1,119.9z M266.3,118.7l0.4,1l-1,0.4l-0.4-1L266.3,118.7z M264.8,120.5l-1,0.4l-0.4-1l1-0.4L264.8,120.5z
			 M261.4,120.7l1-0.4l0.4,1l-1,0.4L261.4,120.7z M261.3,123l0.4,1l-1,0.4l-0.4-1L261.3,123z"/>
		<path class="st2" d="M253.8,133.8l15.6,6.7l1.5-3.4l-15.6-6.7L253.8,133.8z M262.3,134.8l7.4,3.2l-0.4,1l-7.4-3.2L262.3,134.8z"/>
		<path class="st2" d="M259.6,147.5c0.1-0.2,0.4-0.3,0.6-0.2l0,0c0.2,0.1,0.3,0.4,0.2,0.6l-3.3,7.6c0.3,0,0.6,0,0.9,0
			s0.6-0.1,0.9-0.1l0,0l5-11.6c0.1-0.2,0.4-0.4,0.6-0.3c0.2,0.1,0.4,0.4,0.3,0.6l-4.7,10.8c0.7-0.3,1.4-0.2,2.1,0
			c0.3-0.1,0.6-0.1,0.9-0.2l5.8-13.4l-15.6-6.7l-9.5,22c0.7,0,1.3,0,2-0.1c3.3-1,6.7-0.9,10.1-1L259.6,147.5z"/>
		
			<rect x="257" y="127.1" transform="matrix(0.3963 -0.9181 0.9181 0.3963 39.0618 315.444)" class="st2" width="4.9" height="1.9"/>
		
			<rect x="259.6" y="128.2" transform="matrix(0.3963 -0.9181 0.9181 0.3963 39.6375 318.6147)" class="st2" width="4.9" height="1.9"/>
		
			<rect x="262.4" y="129.4" transform="matrix(0.3963 -0.9181 0.9181 0.3963 40.2324 321.8937)" class="st2" width="4.9" height="1.9"/>
		
			<rect x="267.7" y="131.9" transform="matrix(0.3963 -0.9181 0.9181 0.3963 41.3598 328.0397)" class="st2" width="4.9" height="1.4"/>
		
			<rect x="265.2" y="130.6" transform="matrix(0.3963 -0.9181 0.9181 0.3963 40.8271 325.1727)" class="st2" width="4.9" height="1.9"/>
		
			<rect x="269.6" y="133.1" transform="matrix(0.3963 -0.9181 0.9181 0.3963 41.7084 330.3374)" class="st2" width="4.9" height="0.8"/>
		
			<rect x="254.7" y="126.7" transform="matrix(0.3963 -0.9181 0.9181 0.3963 38.5883 312.7719)" class="st2" width="4.9" height="0.7"/>
	</g>
	<rect x="113.2" y="177.6" class="st4" width="124.7" height="71.8"/>
	<text transform="matrix(1 0 0 1 113.2091 204.0689)" class="st3 st5 st6">ENTER </text>
	<text transform="matrix(1 0 0 1 113.2091 240.0689)" class="st3 st5 st6">HERE </text>
	<path class="st2" d="M177.6,82.6l-0.8,3.2l12.9,3.1l-0.4,1.6l-12.9-3.1l-1.1,4.8l8.4,2l-0.4,1.6l-8.4-2l-1,4.4l12.9,3.1l-0.4,1.6
		l-12.9-3.1l-1.1,4.8l8.4,2l-0.4,1.6l-8.4-2l-1,4.4l12.9,3.1l-0.4,1.6l-12.9-3.1l-1.1,4.8l8.4,2l-0.4,1.6l-8.4-2l-1,4.4l12.9,3.1
		l-0.4,1.6l-12.9-3.1l-1.1,4.8l8.4,2l-0.4,1.6l-8.4-2l-1,4.4l12.9,3.1l-0.4,1.6l-9.6-2.3c0.3,0.5,0.3,1.1-0.1,1.5l0,0l0,0
		c0,0.1-0.1,0.2-0.1,0.2c-0.1,0.2-0.2,0.4-0.3,0.6c-0.3,0.6-1,0.7-1.5,0.4c0,0,0,0-0.1,0.1c0.7,0.1,1.4,0.9,0.9,1.8
		c0,0,0,0.1-0.1,0.1l2,0.5c0.3-0.1,0.7,0,0.9,0.2l2.3,0.5l-0.4,1.6l-1.7-0.4c-0.1,0.3-0.3,0.5-0.4,0.8c0,0.1-0.1,0.2-0.1,0.3
		c0,1.1,0,2.3-0.1,3.4l5.8,1.4l-0.4,1.6l-5.6-1.3c-0.1,0.9-0.3,1.8-0.5,2.8v0.1c0,0.2,0,0.4,0,0.6c0,0.8-0.6,1.2-1.3,1.1l0,0
		l1.7,0.4l-0.4,1.6l-0.6-0.2c0.1,0.2,0.2,0.5,0.1,0.8c0,0.1,0.1,0.2,0.1,0.3c0,0,0,0,0,0.1c0.5-0.4,1.2-0.6,2-0.3
		c0.5,0.2,1,0.3,1.5,0.5c0.4-0.1,0.8-0.1,1.2,0c1.3,0.3,2.6,0,3.9,0.1c0.3,0,0.5,0.1,0.7,0.2c0.8,0,1.6,0,2.3,0c0.1,0,0.2,0,0.3-0.1
		c1.2-0.5,2.7-0.5,4-0.5c0.7-2.7,1.9-5.2,2.8-7.8l15-62.6L177.6,82.6z"/>
	<circle class="st7" cx="180.3" cy="177.6" r="165.8"/>
</g>
<g id="Layer_3" class="st0">
	<ellipse class="st8" cx="172.7" cy="144.2" rx="113.4" ry="19"/>
	<path class="st8" d="M273.5,281.8H71.9c-7,0-12.7-5.7-12.7-12.7V156.8c0-7,5.7-12.7,12.7-12.7h201.6c7,0,12.7,5.7,12.7,12.7v112.3
		C286.2,276.1,280.5,281.8,273.5,281.8z"/>
</g>
</svg>
